<?xml version="1.0" encoding="UTF-8"?>
<!DOCTYPE svg PUBLIC "-//W3C//DTD SVG 1.1//EN" "http://www.w3.org/Graphics/SVG/1.1/DTD/svg11.dtd">
<!-- Creator: CorelDRAW -->
<svg xmlns="http://www.w3.org/2000/svg" xml:space="preserve" width="118.004mm" height="27.4456mm" version="1.1" style="shape-rendering:geometricPrecision; text-rendering:geometricPrecision; image-rendering:optimizeQuality; fill-rule:evenodd; clip-rule:evenodd"
viewBox="0 0 12578.75 2925.6"
 xmlns:xlink="http://www.w3.org/1999/xlink"
 xmlns:xodm="http://www.corel.com/coreldraw/odm/2003">
 <defs>
  <style type="text/css">
   <![CDATA[
    .fil0 {fill:#6338F0;fill-rule:nonzero}
   ]]>
  </style>
 </defs>
 <g id="Camada_x0020_1">
  <metadata id="CorelCorpID_0Corel-Layer"/>
  <g id="_2886938099952">
   <path class="fil0" d="M7446.3 2746.2c-210.02,-98.57 -395.74,-147.69 -557.07,-147.42 -88,0 -158.21,12.14 -212.74,37.19 -54.55,25.01 -81.93,57.01 -81.93,95.74 0,38.78 29.32,68.15 86.77,92.58 57.49,24.42 131.92,36.18 219.92,36.18 174.72,0 356.39,-38.12 544.89,-114.27l0.17 0zm155.09 2.03c134.34,68.53 283.18,104.81 434.39,105.86 222.25,0 426.56,-79.58 612.93,-238.81 261.27,-221.77 450.82,-525.16 568.66,-910.07 65.9,-215.92 98.87,-416.13 99,-600.57 -0.62,-120.04 -17.16,-239.47 -49.3,-355.24 -90.72,104.77 -175.16,214.7 -252.85,329.19 -75.36,111.58 -183.53,286.62 -324.44,525.07 -142.22,241.05 -261.26,421.4 -357.13,540.95 -105.08,129.02 -224.11,246.34 -354.93,349.88 -77.12,61.23 -202.53,145.79 -376.33,253.73l0 0zm1708.5 -2040.34c37.6,126.12 57.01,256.86 57.63,388.35 -1.85,212 -34.6,422.63 -97.19,625.43 -122.55,411.67 -324.03,733.64 -604.44,965.93 -174.81,150.73 -399.57,233.04 -631.73,231.41 -75.76,0.71 -151.29,-7.65 -225.04,-25 -67.12,-16.51 -163.05,-51.06 -287.76,-103.71 -223.7,89.97 -431.57,135 -623.5,135.09 -80.77,1.85 -161.33,-9.28 -238.54,-32.97 -39.09,-12.41 -73.86,-35.48 -100.23,-66.56 -24.96,-25.97 -39.53,-59.99 -41.07,-95.74 0,-61.23 34.21,-109.43 102.61,-144.65 68.41,-35.17 160.46,-53.31 276.05,-54.36 181.8,0 390.24,60.31 625.26,180.93 161.25,-109.78 306.73,-240.57 432.49,-388.79 84.13,-98.52 152.75,-184.57 205.23,-260.37 52.51,-75.76 188.4,-278.7 406.39,-611.09 170.05,-255.93 393.19,-516.27 669.37,-781.08 -62.95,-144.61 -134.61,-255.5 -215.04,-332.67 -165.69,-162.3 -388.75,-243.34 -669.24,-243.17 -368.89,0 -681.2,123.26 -937.1,369.73 -122.91,116.39 -223.76,253.55 -297.74,405.02 -63.7,126.52 -97.51,265.71 -98.96,407.02 0,136.16 43.18,246.21 129.46,330.19 81.52,80.43 193.91,120.7 337.2,120.79 197.61,0 387.34,-75.5 569.1,-226.53 247.16,-206.46 418.19,-497.95 513.09,-874.5l38.88 12.28c-37.55,242.55 -117.49,456.49 -239.86,641.94 -125.02,188.06 -279.4,328.79 -463.53,419.47 -126.56,64.05 -266.67,97.55 -408.86,97.77 -185.72,0 -328.17,-61.68 -427.34,-184.98 -88,-109.08 -131.23,-243.17 -131.23,-401.11 0,-202.49 59.57,-400.58 178.73,-594.18 117.39,-192.42 285.11,-350.14 485.54,-456.67 201.93,-107.32 426.69,-161.02 674.35,-161.11 329.18,0 589.21,95.56 780.08,286.66 79.36,79.28 154.77,192.19 226.17,338.77 159.22,-138.66 310.26,-247.35 453.01,-326l14.66 51.64c-132.23,81.83 -277.59,200.99 -436.11,357.4l-0.75 -0.58zm575.69 -642.21l301.58 0 0 307.09c0,123.78 -19.54,205.74 -58.63,245.9 -40.11,41.33 -112.48,65.14 -217.16,71.44 -16.6,-3.83 -33.67,-5.46 -50.71,-4.8l0 -140.43c48.37,0 84.21,-10.69 107.45,-32.13 23.15,-21.53 34.03,-63.04 32.53,-124.97l-115.82 0 0.75 -322.1z"/>
   <g>
    <path class="fil0" d="M1027.82 1954.71c-22.72,24.26 -51.55,42.04 -83.55,51.64 -43.62,11.01 -88.57,15.89 -133.55,14.44l-478.23 0 0 -583.18 469.12 0c49.13,-0.84 98.21,2.86 146.63,11 34.33,5.95 65.5,23.69 87.95,50 26.23,38.34 39.71,111.68 39.71,219.18 0,116.56 -16.16,195.4 -48.51,236.47l0.44 0.44zm75.36 202.05l0 -6.95c108.21,-19.24 184.71,-56.57 230.14,-111.51 51.24,-59.6 76.73,-184.26 76.55,-374.04 0,-175.02 -34.77,-301.05 -104.37,-378.09 -79.19,-86.24 -230.66,-129.38 -454.46,-129.46l-851.04 0 0 1709.21 332.48 0 0 -565.4 464.01 0c43.28,-1.01 86.59,2.82 128.98,11.45 32.49,7.75 61.72,25.4 83.42,50.45 24.38,27.51 39.7,61.67 43.97,97.94 6.43,48.95 9.38,98.3 8.8,147.69l0 257.87 334.12 0 0 -316.72c0,-127.62 -20.79,-224.29 -62.29,-290.05 -52.03,-57.85 -129.02,-92.71 -230.17,-102.09l-0.14 -0.31zm0 0l0 0 0 0z"/>
   </g>
   <polygon class="fil0" points="1654.94,2865.49 1654.94,1156.98 2844.05,1156.98 2844.05,1437.61 1987.42,1437.61 1987.42,1865.43 2800.21,1865.43 2800.21,2132.02 1987.42,2132.02 1987.42,2584.9 2848.58,2584.9 2848.58,2865.49 "/>
   <g>
    <path class="fil0" d="M4272.8 2025.27l0 115.73c0,156.79 -22.31,266.14 -67,328.04 -33.14,47.71 -70.34,78.97 -112.29,93.72 -52.48,16.5 -107.42,24.07 -162.44,22.41l-501.08 0 0 -1147.56 477.92 0c111.24,0 193.21,14.43 245.98,43.41 24.39,12.32 45.78,29.62 62.82,50.79 17.03,21.13 29.32,45.66 36.01,71.85 13.47,53.21 20.07,130.16 20.07,231.41l0 190.21zm253.48 -624.56c-90.99,-162.39 -289.39,-243.65 -595.2,-243.73l-833.43 0 0 1708.94 899.99 0c63.26,-0.58 126.3,-7.3 188.23,-20.11 56.35,-9.86 110.81,-28.48 161.29,-55.07 173.84,-100.99 260.78,-302.95 260.78,-605.94l0 -364.48c0,-179.56 -27.08,-319.37 -81.22,-419.47l-0.44 -0.14zm0 0l0 0 0 0z"/>
   </g>
   <polygon class="fil0" points="4824.2,2865.49 4824.2,1156.98 6013.32,1156.98 6013.32,1437.61 5156.73,1437.61 5156.73,1865.43 5969.47,1865.43 5969.47,2132.02 5156.73,2132.02 5156.73,2584.9 6017.85,2584.9 6017.85,2865.49 "/>
   <g>
    <path class="fil0" d="M10602.8 1797.03l0 453.32c0.31,51.19 -5.11,102.26 -16.12,152.3 -7.13,37.95 -21.08,74.35 -41.2,107.46 -31.73,35.6 -74.25,60.22 -121.23,70.16 -51.9,13.29 -128.62,21.04 -230.17,23.15 -77.92,-0.52 -155.71,-6.99 -232.65,-19.23 -23.47,-3.88 -45.92,-12.42 -65.9,-25.18 -19.99,-12.73 -37.16,-29.37 -50.37,-48.91 -32.35,-52.74 -48.51,-149.15 -48.51,-289.26l0 -405.03c0.41,-17.56 -1.14,-35.08 -4.53,-52.34 6.86,-103 21.39,-178.76 43.98,-228.11 19.54,-43.76 58.28,-73.3 116.21,-88.53 58.67,-15.63 140.91,-23.15 248.23,-23.15 58.63,0 113.48,1.45 164.32,4.49 82.41,10.7 142.37,35.74 180.49,75.67 38.12,46.57 57.32,124.09 57.32,231.41l0.13 61.76zm293.21 -345.38c-27.29,-68.01 -50,-111.23 -68.01,-130.21 -34.33,-51.64 -86.67,-90.37 -157.46,-116.87 -71.66,-26.55 -146.62,-43.41 -222.83,-50.19 -78,-7.22 -161.99,-10.96 -252.45,-10.96 -95,0 -179.65,3.12 -253.91,9.37 -73.69,6.39 -146.19,22.45 -215.52,47.89 -64.45,21.39 -120.75,61.8 -161.25,115.69 -41.55,60.79 -68.71,129.99 -79.58,202.53 -13.39,87.38 -19.46,175.73 -18.19,264.08l0 467.36c0,233.91 43.98,394.15 131.93,480.65 58.41,62.16 135.49,104.2 219.88,120.04 109.88,20.87 221.65,30.55 333.54,28.93 108.21,0 201.04,-2.95 278.51,-8.8 76.73,-6.12 152.22,-22.46 224.46,-48.6 67.53,-22.41 126.56,-64.45 169.35,-120.67 35.04,-49.96 63.17,-104.37 83.55,-161.69 19.5,-56.56 29.31,-136.41 29.31,-239.24l0 -551.66c0,-131.05 -13.64,-230.27 -40.89,-297.67l-0.45 0zm0 0l0 0 0 0z"/>
   </g>
   <g>
    <path class="fil0" d="M12196.6 1954.71c-22.72,24.26 -51.46,42.04 -83.51,51.64 -43.59,11.01 -88.53,15.89 -133.47,14.44l-478.33 0 0 -583.18 469.13 0c49.12,-0.84 98.16,2.86 146.62,11 34.33,5.95 65.46,23.69 87.95,50 26.19,38.34 39.71,111.68 39.71,219.18 0,116.56 -16.2,195.4 -48.47,236.47l0.36 0.44zm75.35 202.05l0 -6.95c108.21,-19.24 184.71,-56.57 230.14,-111.51 51.24,-59.6 76.77,-184.26 76.64,-374.04 0,-175.02 -34.82,-301.05 -104.24,-378.09 -79.41,-86.24 -230.84,-129.38 -454.46,-129.46l-851.22 0 0 1709.21 332.48 0 0 -565.4 464.11 0c43.31,-1.01 86.55,2.82 128.93,11.45 32.49,7.75 61.63,25.4 83.38,50.45 24.35,27.51 39.75,61.67 44.07,97.94 6.37,48.95 9.28,98.3 8.71,147.69l0 257.87 334.16 0 0 -316.72c0,-127.62 -20.86,-224.29 -62.33,-290.05 -52.04,-57.85 -129.02,-92.71 -230.14,-102.09l-0.22 -0.31zm0 0l0 0 0 0z"/>
   </g>
  </g>
 </g>
</svg>
